<?xml version="1.0" encoding="utf-8" ?><svg xmlns="http://www.w3.org/2000/svg" xmlns:xlink="http://www.w3.org/1999/xlink" width="1024" height="1024" viewBox="0 0 1024 1024"><path fill="#0D3457" d="M501.847 41.7508C520.21 41.5895 538.573 41.571 556.936 41.6955C567.326 41.7494 600.472 41.0065 607.323 47.8195C618.976 59.4066 620.04 112.801 607.937 124.323C599.821 132.048 572.11 131.058 560.669 130.921C561.177 151.469 560.879 172.679 560.999 193.298C571.23 194.342 586.312 197.261 596.583 199.302C662.145 212.332 707.552 236.036 761.36 273.965C770.545 264.458 777.984 255.696 787.769 246.136C785.167 241.585 782.359 236.229 781.808 230.927C780.484 217.378 791.258 204.17 802.51 197.814C815.678 190.375 821.696 194.107 831.707 202.613C846.207 215.081 860.062 228.279 873.22 242.157C877.239 246.342 885.45 254.806 888.195 259.544C889.211 261.306 889.803 263.28 889.923 265.311C890.547 277.093 867.782 301.782 855.296 302.363C849.854 302.616 843.479 295.978 839.619 292.389C833.887 298.713 820.771 312.488 816.681 319.086C819.192 323.025 823.68 328.207 826.713 331.937C832.78 339.395 838.775 346.607 844.56 354.309C867.504 384.697 885.892 418.269 899.143 453.965C936.36 554.469 932.302 665.615 887.857 763.138C848.003 848.781 779.992 918.171 695.167 959.736C684.308 965.058 672.975 970.453 661.637 974.665C622.82 989.809 581.911 998.916 540.335 1001.67C429.112 1009.41 319.468 971.964 236.224 897.795C155.615 827.322 106.662 727.446 100.34 620.562C93.0131 512.989 129.637 407.045 201.835 326.963C258.132 263.958 341.259 216.021 424.202 199.775C434.209 197.815 449.104 194.785 459.197 194.21L459.134 130.858C430.54 130.801 404.352 134.795 404.033 96.7126C403.836 73.1418 399.811 41.8764 432.772 41.901C440.027 41.9064 447.37 41.8224 454.614 41.8111L501.847 41.7508Z"/><path fill="#FB8907" d="M259.72 796.926L259.318 796.274C257.761 793.792 255.104 790.566 253.242 788.173C243.894 776.159 235.652 762.908 228.317 749.595C191.451 682.488 179.923 604.368 195.835 529.472C213.693 446.143 264.196 373.445 336.055 327.631C409.847 281.11 499.064 265.72 584.177 284.831C666.072 302.801 737.599 352.291 783.284 422.594C829.891 494.218 845.79 581.555 827.413 665.009C809.179 747.525 758.79 819.363 687.413 864.604C613.753 911.66 524.292 927.194 439.081 907.723C411.419 901.571 396.221 894.949 370.822 884.212C369 884.808 363.962 881.359 361.314 880.32C363.203 882.887 367.087 884.235 370.02 885.613C367.815 884.945 364.122 883.966 362.253 882.781C351.428 875.921 337.736 869.835 327.98 861.684C331.114 863.371 334.566 865.524 337.663 867.355C333.844 864.172 323.51 858.484 321.925 855.178C320.204 853.514 309.393 845.661 306.379 843.239C301.802 843.827 299.492 840.886 296.339 838.006C288.715 833.413 261.742 804.904 259.72 796.926Z"/><path fill="#173449" d="M259.72 796.926C262.897 800.348 265.939 803.934 268.983 807.476C276.996 816.796 286.073 825.288 295.01 833.708L306.379 843.239C301.802 843.827 299.492 840.886 296.339 838.006C288.715 833.413 261.742 804.904 259.72 796.926Z"/><path fill="#173449" d="M321.925 855.178C335.866 864.487 349.294 873.521 364.45 880.752C365.946 881.465 369.777 883.331 370.822 884.212C369 884.808 363.962 881.359 361.314 880.32C363.203 882.887 367.087 884.235 370.02 885.613C367.815 884.945 364.122 883.966 362.253 882.781C351.428 875.921 337.736 869.835 327.98 861.684C331.114 863.371 334.566 865.524 337.663 867.355C333.844 864.172 323.51 858.484 321.925 855.178Z"/><path fill="#0D3457" d="M402.156 448.205C414.578 447.915 427.1 448.171 439.531 448.06C445.377 448.084 451.529 448.46 456.343 452.198C463.618 457.847 462.479 466.322 462.485 474.399L462.487 496.67L462.457 571.188L462.487 671.252L462.51 703.204C462.52 716.523 465.123 735.433 446.096 736.567C436.24 736.513 426.382 736.532 416.526 736.623C410.903 736.652 403.707 737.162 398.341 736.157C382.698 733.225 384.467 717.778 384.535 705.741C384.566 700.282 384.535 695.058 384.534 689.785L384.52 621.727L384.52 517.335L384.529 483.849C384.535 468.89 381.456 449.998 402.156 448.205Z"/><path fill="#0D3457" d="M578.406 448.236C591.382 447.978 604.427 448.186 617.41 448.026C619.422 448.015 621.391 448.134 623.389 448.352C643.518 450.549 639.277 472.372 639.234 487.248L639.2 543.123L639.231 661.521C639.247 680.347 639.485 699.169 639.396 717.992C639.35 727.705 634.309 734.561 624.589 736.504L593.089 736.566C584.936 736.596 574.442 737.901 567.654 732.905C564.687 730.722 561.761 725.631 561.668 721.919C561.374 710.194 561.522 698.401 561.523 686.663L561.536 612.359L561.555 514.974C561.559 498.832 561.465 482.695 561.678 466.557C561.819 455.956 567.69 449.218 578.406 448.236Z"/></svg>